# xmcd
#
# Track frame offsets:
#	150
#	20656
#	49860
#	71025
#	98151
#	119144
#	143251
#	168782
#	199659
#	230541
#
# Disc length: 3650 seconds
#
# Revision: 1
# Processed by: cddbd v1.5.1PL0 Copyright (c) Steve Scherf et al.
# Submitted via: audiograbber 1.83.01
#
DISCID=870e400a
DTITLE=Little Derek and The Haemo Blues Band - Live (Feat.Charlie A'Court
DYEAR=2004
DGENRE=Blues
TTITLE0=Instrumental Intro
TTITLE1=Let The Good Times Roll
TTITLE2=That's All Right Mama
TTITLE3=Little Red Rooster
TTITLE4=Good Time Charlie
TTITLE5=Haemo Blues
TTITLE6=Rack 'Em Up
TTITLE7=Got My Mojo Working
TTITLE8=Kindhearted Woman
TTITLE9=Tore Down/Some Kind Of Wonderful
EXTD=2004 Sugar Caine Music\nRecorded Live at The Music Room, Halifax, Nova Sco
EXTD=tia, Canada\n\nThe Band: Little Derek Caine - Mouth Harp\nCharlie A'Court 
EXTD=Guitar, Vocals\nDanny Sutherland - Bass\nDave Skinner - Drums, Vocals\nR
EXTD=oss Billard - Piano, Organ\nAudrey Alexander - Backgroud Vocals
EXTT0=
EXTT1=
EXTT2=
EXTT3=
EXTT4=
EXTT5=
EXTT6=
EXTT7=
EXTT8=
EXTT9=
PLAYORDER=
